<svg xmlns="http://www.w3.org/2000/svg" data-name="Layer 1" viewBox="0 0 64 64" width="64" height="64"><path fill="#f9e3ae" d="M40.29,38.64a85.89,85.89,0,0,0,8.47-3,2,2,0,0,0,.92-2.95l-1.86-2.85a20,20,0,0,1-2.75-6.48l-2.27-8.91A16,16,0,0,0,27.83,2a5.13,5.13,0,0,0-3.07-1h0A16,16,0,0,0,9.14,13.51l-2.45,10a20,20,0,0,1-2.82,6.65L2.21,32.66a2,2,0,0,0,.91,3c1.79.74,6.24,2.2,9,2.94"/><path fill="#ed7899" d="M45,41.53,32,34H20L7,41.53A12,12,0,0,0,1,51.92V57a2,2,0,0,0,2,2H42a2,2,0,0,0,2-2V51.92C44,47.64,48.72,43.68,45,41.53Z"/><path fill="#e0678f" d="M31,54H5a4,4,0,0,0-4,4H1a1,1,0,0,0,1,1H34a1,1,0,0,0,1-1h0A4,4,0,0,0,31,54Z"/><path fill="#f98cb3" d="M35,35.74s-4.2,5.21-9.06,5.21S17,35.74,17,35.74l-2.81,1.82A2,2,0,0,0,14.38,41l11.57,5.87,11.71-5.94a2,2,0,0,0,.14-3.49Z"/><path fill="#faefde" d="M38.56,18a13,13,0,0,1,.6,3.34,1.33,1.33,0,0,1,1.07-.25c1.07.29,1.47,2.25.9,4.38-.52,2-1.69,3.36-2.7,3.36-1.8,6.07-6.6,12.12-12.23,12.12S15.76,34.9,14,28.83c-1,0-2.17-1.4-2.7-3.36-.57-2.13-.17-4.1.9-4.38a1.33,1.33,0,0,1,1.07.25A13,13,0,0,1,13.81,18a3.85,3.85,0,0,0,4-2c1.34-2.5,2.36-3,2.36-3l5.61,2.28s6.11,1.23,7.92.73S38.56,18,38.56,18Z"/><path fill="#f9e3ae" d="M36.69 38.34H50.83V58.2H36.69z" transform="rotate(45 43.766 48.269)"/><path fill="#f6d397" d="M41.13 40.29H50.32V59.32H41.13z" transform="rotate(45 45.72 49.807)"/><path fill="#ed7899" d="M52.46,31.66h8.1a3,3,0,0,1,3,3v4.77a0,0,0,0,1,0,0H49.46a0,0,0,0,1,0,0V34.66a3,3,0,0,1,3-3Z" transform="rotate(45 56.515 35.55)"/><path fill="#c2cde7" d="M45.15 37.66H59.29V41.959999999999994H45.15z" transform="rotate(45 52.224 39.802)"/><path fill="#faefde" d="M30.24 59.43L31.03 50.79 36.53 51.57 37.31 53.93 39.61 55.11 41.24 61 31.81 61 30.24 59.43z"/><path fill="#f07979" d="M1,56a1,1,0,0,1-1-1V53a1,1,0,0,1,2,0v2A1,1,0,0,1,1,56Z"/><path fill="#8d6c9f" d="M26 50a1 1 0 0 0-1 1v4a1 1 0 0 0 2 0V51A1 1 0 0 0 26 50zM21 52a1 1 0 0 0-1 1v2a1 1 0 0 0 2 0V53A1 1 0 0 0 21 52zM16 52a1 1 0 0 0-1 1v2a1 1 0 0 0 2 0V53A1 1 0 0 0 16 52zM11 52a1 1 0 0 0-1 1v2a1 1 0 0 0 2 0V53A1 1 0 0 0 11 52zM6 52a1 1 0 0 0-1 1v2a1 1 0 0 0 2 0V53A1 1 0 0 0 6 52zM26 48a1 1 0 0 0 .45-.11l8-4a1 1 0 1 0-.89-1.79L26 45.88l-7.55-3.78a1 1 0 0 0-.89 1.79l8 4A1 1 0 0 0 26 48zM17.36 16.83a1 1 0 0 0 1.38-.28l1.6-2.43 1.56.76A21.11 21.11 0 0 0 31.11 17h2.55a1 1 0 0 0 0-2H31.11a19.11 19.11 0 0 1-8.32-1.92l-1.56-.76a2 2 0 0 0-2.55.7l-1.6 2.43A1 1 0 0 0 17.36 16.83z"/><path fill="#8d6c9f" d="M62.12,34.12l-4.24-4.24a5,5,0,0,0-7.07,0l-1,1-1.07-1.64a19,19,0,0,1-2.62-6.18L43.82,14.2A17,17,0,0,0,28.23,1a6.1,6.1,0,0,0-3.41-1A16.89,16.89,0,0,0,8.24,13.28l-2.45,10A19,19,0,0,1,3.1,29.59L1.44,32.11A3,3,0,0,0,2.8,36.54c1.37.57,4.28,1.55,6.81,2.32L6.49,40.67A13,13,0,0,0,0,51.92V57a3,3,0,0,0,3,3H28.76l-.35,2.46a1,1,0,0,0,1,1.14h.14l4.92-.7,6.39-.68a1,1,0,0,0,.6-.29L59.29,44l2.83-2.83a5,5,0,0,0,0-7.07ZM55.52,45,47,36.49l1.65-1.66,8.48,8.48ZM34.72,60.85l-3.56-3.56.57-4.86,4.46.47v1.93a1,1,0,0,0,1,1h1.93l.47,4.51ZM41,54.72a1,1,0,0,0-1-.9H38.18V52.41L43.54,47a1,1,0,0,0-1.41-1.41l-5.32,5.32L33,50.55l12.6-12.64,8.48,8.48L41.46,59.08Zm-37.43-20A1,1,0,0,1,3,34.05a1,1,0,0,1,.12-.84l1.66-2.52a20.89,20.89,0,0,0,3-7l2.45-10A14.91,14.91,0,0,1,24.82,2a4.14,4.14,0,0,1,2.47.83,1,1,0,0,0,.55.2,15,15,0,0,1,14,11.65l2.26,8.88A20.93,20.93,0,0,0,47,30.35l1.3,2-.36.36h0l-3,3,0,0,0,0L42,38.66l-5.75-3.33A23,23,0,0,0,39,29.73c1.23-.46,2.35-2,2.89-4a7.6,7.6,0,0,0,.18-3.35,2.67,2.67,0,0,0-1.79-2.26,1.78,1.78,0,0,0-.43-.06,14.4,14.4,0,0,0-.53-2.36,1,1,0,0,0-1.26-.65,1,1,0,0,0-.65,1.25A11.93,11.93,0,0,1,38,21.43a1,1,0,0,0,.54.85,1,1,0,0,0,1-.06.77.77,0,0,1,.27-.12s.22.18.34.73A5.73,5.73,0,0,1,40,25.26a5.47,5.47,0,0,1-.95,2c-.33.42-.64.62-.79.62a1,1,0,0,0-1,.72,21,21,0,0,1-2.7,5.73,15.73,15.73,0,0,1-1.21,1.61C31.34,38.35,28.78,40,26,40s-5.34-1.65-7.36-4.06a15.73,15.73,0,0,1-1.21-1.61,21,21,0,0,1-2.7-5.73,1,1,0,0,0-1-.72c-.3,0-1.24-.78-1.74-2.62a5.73,5.73,0,0,1-.15-2.43c.12-.56.31-.72.33-.73a.76.76,0,0,1,.28.12,1,1,0,0,0,1,.06,1,1,0,0,0,.54-.85,11.78,11.78,0,0,1,.55-3.06,1,1,0,0,0-.66-1.26,1,1,0,0,0-1.25.66,14.17,14.17,0,0,0-.53,2.34,1.78,1.78,0,0,0-.43.06,2.67,2.67,0,0,0-1.79,2.26,7.6,7.6,0,0,0,.18,3.35c.54,2,1.66,3.49,2.89,4a23,23,0,0,0,2.72,5.6L12,37.48C9.28,36.71,5.24,35.38,3.57,34.69ZM3,58a1,1,0,0,1-1-1V51.92A11,11,0,0,1,7.49,42.4l9.42-5.46C19.33,39.91,22.5,42,26,42s6.67-2.09,9.09-5.06l5.49,3.19L30.14,50.61a1,1,0,0,0-.29.59l-.73,6.31h0L29,58ZM60.71,39.78,58.59,41.9,50.1,33.41l2.12-2.12a3,3,0,0,1,4.24,0l4.24,4.24a3,3,0,0,1,0,4.24Z"/></svg>