<svg xmlns="http://www.w3.org/2000/svg" data-name="Layer 1" viewBox="0 0 64 64" width="64" height="64"><path fill="#c5e4fa" d="M31 3A28 28 0 1 0 31 59A28 28 0 1 0 31 3Z"/><path fill="#e3f2ff" d="M12.71 52.29a28 28 0 0 0 9.18 5.82L56 24V17.57a28.1 28.1 0 0 0-3.71-4.86zM10.76 50.24L50 11H44L8.22 46.78A28.08 28.08 0 0 0 10.76 50.24z"/><path fill="#ed7899" d="M48 53L31.11 55 14 53 14.59 42.76 23 36 31 35 38.33 36 46.41 41.75 48 53z"/><path fill="#f98cb3" d="M31,43c3,0,5.69-1.83,7.68-4.8a1.91,1.91,0,0,0-.51-2.64l-.17-.1c-1.85,2.78-4.29,4.75-7,4.75s-5.15-2-7-4.75l-.17.1a1.91,1.91,0,0,0-.51,2.64C25.31,41.17,28,43,31,43Z"/><path fill="#e3f2ff" d="M7.79,43.21,41,10,38,8,6.36,39.64A27.81,27.81,0,0,0,7.79,43.21Z"/><path fill="#f9e3ae" d="M17.5,39l-2.05-1.06a1,1,0,0,1-.39-1.41l1.71-2.8a1,1,0,0,0,.11-.25L19.25,25l1.81-5.58a1,1,0,0,1,.4-.53l4.91-3.25a1,1,0,0,1,.28-.13l3.86-1.08a1,1,0,0,1,.69.06l2.21,1,.18.06,2.53.63a1,1,0,0,1,.33.15l3.1,2.18a1,1,0,0,1,.3.33l2,3.55a1,1,0,0,1,.1.25l1.23,5.12,1,3.75a1,1,0,0,0,.1.25l2.31,4,.07.14.41,1a1,1,0,0,1-.43,1.23l-2.19,1.26a1,1,0,0,1-1.22-.18L41.39,37.4a1,1,0,0,0-.33-.23l-2.37-1a1,1,0,0,0-.74,0l-1.46.53a1,1,0,0,0-.35.21L34.3,38.64a1,1,0,0,1-.47.25l-3.43.75a1,1,0,0,1-.74-.13l-2-1.26a1,1,0,0,1-.23-.19l-1.72-2a1,1,0,0,0-1.06-.29l-1.85.6-.21.1-4.09,2.47A1,1,0,0,1,17.5,39Z"/><path fill="#f9e3ae" d="M31,3A28,28,0,1,0,59,31,28,28,0,0,0,31,3Zm0,50A22,22,0,1,1,46.17,15.07l.68.67q.39.4.75.82A22,22,0,0,1,31,53Z"/><path fill="#f6d397" d="M31,53A22,22,0,0,1,9,31H7.34a4,4,0,0,0-3.95,4.71,28,28,0,0,0,55.21,0A4,4,0,0,0,54.66,31H53A22,22,0,0,1,31,53Z"/><path fill="#faefde" d="M23.37,25.39A11.37,11.37,0,0,0,23,27.73a.82.82,0,0,0-.66-.15c-.66.18-.91,1.39-.55,2.7s1,2.08,1.67,2.08c1.11,3.75,4.07,7.48,7.55,7.48s6.44-3.73,7.55-7.48c.62,0,1.34-.87,1.67-2.08s.11-2.53-.55-2.7a.82.82,0,0,0-.66.15,7.53,7.53,0,0,0-.43-2.22l-2.89-1.23-8.28-1.74L26,24.66Z"/><path fill="#8d6c9f" d="M31,2A29,29,0,1,0,60,31,29,29,0,0,0,31,2Zm0,56A27,27,0,1,1,58,31,27,27,0,0,1,31,58Z"/><path fill="#8d6c9f" d="M31 50a1 1 0 0 0-1 1v2a1 1 0 0 0 2 0V51A1 1 0 0 0 31 50zM37 50.08a1 1 0 0 0-1.93.52l.52 1.93A1 1 0 0 0 37.53 52zM21.75 47.52a1 1 0 0 0-1.37.37l-1 1.73a1 1 0 1 0 1.73 1l1-1.73A1 1 0 0 0 21.75 47.52zM41.62 47.89a1 1 0 1 0-1.73 1l1 1.73a1 1 0 1 0 1.73-1zM26.21 49.37a1 1 0 0 0-1.22.71L24.47 52a1 1 0 1 0 1.93.52l.52-1.93A1 1 0 0 0 26.21 49.37zM38.35 11.32a21 21 0 0 1 2.1.92 1 1 0 0 0 .9-1.79 23 23 0 0 0-2.3-1 1 1 0 1 0-.7 1.87z"/><path fill="#8d6c9f" d="M47.26,14.74a23.19,23.19,0,0,0-2.09-1.86,1,1,0,0,0-1.23,1.57,21.26,21.26,0,0,1,1.91,1.7,21,21,0,0,1,2.3,26.94,19.48,19.48,0,0,0-2.54-3.4c.36-.12.71-.26,1-.39A2.34,2.34,0,0,0,48,37.83a2.32,2.32,0,0,0-.28-2L46.47,34a12.28,12.28,0,0,1-1.71-4l-1.52-6.63a11.73,11.73,0,0,0-10.65-9.06,4.41,4.41,0,0,0-2.38-.7,11.63,11.63,0,0,0-11.43,9.16L17.14,30a12.22,12.22,0,0,1-1.75,4.12l-1.11,1.68a2.35,2.35,0,0,0,1.06,3.45c.34.14.69.27,1,.4a19.9,19.9,0,0,0-2.53,3.39A21,21,0,0,1,34.34,10.27a1,1,0,1,0,.32-2,23,23,0,0,0-19.92,39,1,1,0,0,0,1.41-1.41c-.34-.34-.64-.69-.95-1a17.1,17.1,0,0,1,3.65-4.71l0,0a15.35,15.35,0,0,1,5.66-3.23c1.62,2.3,3.9,4,6.46,4s4.84-1.7,6.46-4a16.12,16.12,0,0,1,9.33,8c-.31.35-.61.71-.94,1a1,1,0,1,0,1.41,1.41A23,23,0,0,0,47.26,14.74Zm-3.32,23.4a17.15,17.15,0,0,0-5.42-3.06,13.35,13.35,0,0,0,.82-1.92,4,4,0,0,0,1.84-2.63c.52-1.94,0-3.59-1.26-3.93h0a9.44,9.44,0,0,0-.36-1.41,1,1,0,0,0-1.9.63A6.52,6.52,0,0,1,38,27.77a1,1,0,0,0,1.33.89A3,3,0,0,1,39.25,30a2.85,2.85,0,0,1-.7,1.33,1,1,0,0,0-1,.72,13.67,13.67,0,0,1-1,2.46,11.85,11.85,0,0,1-1.22,1.8A5.9,5.9,0,0,1,31,38.83a5.94,5.94,0,0,1-4.34-2.49,11.56,11.56,0,0,1-1.22-1.82,13.59,13.59,0,0,1-1-2.45.9.9,0,0,0-.88-.71A2.22,2.22,0,0,1,22.75,30a3,3,0,0,1-.08-1.35,1,1,0,0,0,.78,0,1,1,0,0,0,.55-.85,9.86,9.86,0,0,1,.33-2.1,1,1,0,0,0-.68-1.24,1,1,0,0,0-1.24.67,9.78,9.78,0,0,0-.31,1.5h0c-1.25.33-1.78,2-1.26,3.92a4,4,0,0,0,1.84,2.63,13.85,13.85,0,0,0,.81,1.91A17.56,17.56,0,0,0,18,38.15c-.69-.22-1.35-.45-1.93-.69a.37.37,0,0,1-.2-.22A.36.36,0,0,1,16,37l1.11-1.68a14.28,14.28,0,0,0,2-4.79l1.64-7.34a9.66,9.66,0,0,1,9.48-7.59,2.41,2.41,0,0,1,1.45.49,1.06,1.06,0,0,0,.56.2,9.7,9.7,0,0,1,9.07,7.52l1.52,6.62a14.35,14.35,0,0,0,2,4.66L46,37a.32.32,0,0,1,0,.29.35.35,0,0,1-.2.21C45.3,37.69,44.64,37.92,43.94,38.14Z"/><path fill="#8d6c9f" d="M35.73,23.4H34.15a11.41,11.41,0,0,1-5-1.15l-1-.47a1.62,1.62,0,0,0-2.06.56l-1,1.5a1,1,0,0,0,.29,1.38,1,1,0,0,0,.55.17,1,1,0,0,0,.84-.45l.8-1.22.66.32a13.42,13.42,0,0,0,5.84,1.35h1.58a1,1,0,0,0,0-2Z"/></svg>